<?xml version="1.0" encoding="UTF-8" standalone="no"?>
<!-- Created with Inkscape (http://www.inkscape.org/) -->

<svg
   xmlns:dc="http://purl.org/dc/elements/1.1/"
   xmlns:cc="http://creativecommons.org/ns#"
   xmlns:rdf="http://www.w3.org/1999/02/22-rdf-syntax-ns#"
   xmlns:svg="http://www.w3.org/2000/svg"
   xmlns="http://www.w3.org/2000/svg"
   xmlns:sodipodi="http://sodipodi.sourceforge.net/DTD/sodipodi-0.dtd"
   xmlns:inkscape="http://www.inkscape.org/namespaces/inkscape"
   width="210mm"
   height="297mm"
   id="svg2"
   version="1.1"
   inkscape:version="0.48.5 r10040"
   sodipodi:docname="logo_enigma.svg"
   inkscape:export-filename="/home/mago/logo_enigma.png"
   inkscape:export-xdpi="90"
   inkscape:export-ydpi="90">
  <defs
     id="defs4" />
  <sodipodi:namedview
     id="base"
     pagecolor="#ffffff"
     bordercolor="#666666"
     borderopacity="1.0"
     inkscape:pageopacity="0.0"
     inkscape:pageshadow="2"
     inkscape:zoom="1.4"
     inkscape:cx="380.06305"
     inkscape:cy="536.36164"
     inkscape:document-units="px"
     inkscape:current-layer="layer1"
     showgrid="false"
     showguides="true"
     inkscape:guide-bbox="true"
     inkscape:window-width="1366"
     inkscape:window-height="700"
     inkscape:window-x="0"
     inkscape:window-y="0"
     inkscape:window-maximized="1">
    <sodipodi:guide
       orientation="0,1"
       position="-11.111678,420.22346"
       id="guide2997" />
    <sodipodi:guide
       orientation="0,1"
       position="-15.657364,401.53564"
       id="guide2999" />
    <sodipodi:guide
       orientation="1,0"
       position="77.27667,625.28443"
       id="guide3001" />
  </sodipodi:namedview>
  <metadata
     id="metadata7">
    <rdf:RDF>
      <cc:Work
         rdf:about="">
        <dc:format>image/svg+xml</dc:format>
        <dc:type
           rdf:resource="http://purl.org/dc/dcmitype/StillImage" />
        <dc:title></dc:title>
      </cc:Work>
    </rdf:RDF>
  </metadata>
  <g
     inkscape:label="Camada 1"
     inkscape:groupmode="layer"
     id="layer1">
    <text
       xml:space="preserve"
       style="font-size:40px;font-style:normal;font-variant:normal;font-weight:normal;font-stretch:normal;line-height:125%;letter-spacing:0px;word-spacing:0px;fill:#000000;fill-opacity:1;stroke:none;font-family:Liberation Serif;-inkscape-font-specification:Liberation Serif"
       x="78.311462"
       y="510.62909"
       id="text2985"
       sodipodi:linespacing="125%"><tspan
         sodipodi:role="line"
         id="tspan2987"
         x="78.311462"
         y="510.62909"
         style="font-size:144px;font-style:normal;font-variant:normal;font-weight:normal;font-stretch:normal;font-family:Liberation Serif;-inkscape-font-specification:Liberation Serif">∑</tspan></text>
    <text
       xml:space="preserve"
       style="font-size:40px;font-style:normal;font-weight:normal;line-height:125%;letter-spacing:0px;word-spacing:0px;fill:#000000;fill-opacity:1;stroke:none;font-family:Sans"
       x="165.71428"
       y="492.36218"
       id="text2989"
       sodipodi:linespacing="125%"><tspan
         sodipodi:role="line"
         id="tspan2991"
         x="165.71428"
         y="492.36218"
         style="font-size:144px;font-style:normal;font-variant:normal;font-weight:normal;font-stretch:normal;font-family:Liberation Sans;-inkscape-font-specification:Liberation Sans">nigma</tspan></text>
    <text
       xml:space="preserve"
       style="font-size:48.28494644px;font-style:normal;font-weight:normal;line-height:125%;letter-spacing:0px;word-spacing:0px;fill:#000000;fill-opacity:1;stroke:none;font-family:Sans"
       x="190.90439"
       y="512.74689"
       id="text2993"
       sodipodi:linespacing="125%"
       transform="scale(0.95976226,1.0419247)"><tspan
         sodipodi:role="line"
         id="tspan2995"
         x="190.90439"
         y="512.74689"
         style="font-style:italic;font-variant:normal;font-weight:bold;font-stretch:normal;font-family:URW Bookman L;-inkscape-font-specification:URW Bookman L Bold Italic">jobs</tspan></text>
    <path
       style="fill:#ffffff;stroke:#000000;stroke-width:1.01015258;stroke-miterlimit:4;stroke-opacity:1;stroke-dasharray:none"
       d="m 85.159178,538.59509 c 0,-2.44785 0.324373,-2.96134 20.005052,-31.66809 11.00278,-16.04894 20.1068,-29.44504 20.23115,-29.76909 0.12435,-0.32407 -8.19607,-12.92936 -18.48982,-28.01177 -18.262566,-26.75831 -18.715924,-27.48179 -18.715924,-29.8671 l 0,-2.44452 38.638334,0 38.63834,0 0,11.86929 0,11.86929 -2.1631,0 -2.1631,0 -1.38498,-8.43049 c -0.76175,-4.63676 -1.47439,-8.51988 -1.58365,-8.62914 -0.47428,-0.47429 -20.59578,-1.08565 -36.32204,-1.1036 -15.00286,-0.0171 -17.06468,0.0735 -16.80946,0.73858 0.16,0.41695 7.34378,11.08513 15.96394,23.70708 8.62017,12.62194 15.67304,23.3711 15.67304,23.88701 0,0.51591 -8.85915,13.88304 -19.68699,29.70473 l -19.686983,28.76672 23.853863,0.13443 c 22.18538,0.12503 40.37849,-0.32826 41.0736,-1.02336 0.16307,-0.16308 0.97011,-2.98448 1.79343,-6.26978 2.7236,-10.86808 2.20573,-9.76135 4.56758,-9.76135 l 2.07608,0 -0.32433,6.9448 c -0.17838,3.81964 -0.474,10.29724 -0.65692,14.39467 l -0.33259,7.44988 -42.09726,0 -42.097262,0 0,-2.48819 z"
       id="path3028"
       inkscape:connector-curvature="0" />
    <path
       style="fill:#ffffff;stroke:#000000;stroke-width:1.01015258;stroke-miterlimit:4;stroke-opacity:1;stroke-dasharray:none"
       d="m 176.07029,459.28618 c -0.001,-18.12593 -0.14936,-35.17225 -0.32871,-37.88072 l -0.3261,-4.9245 5.88455,0 5.88456,0 0.05,3.91434 c 0.0275,2.15289 0.19793,5.13504 0.3788,6.62699 l 0.32886,2.71265 2.46869,-3.61973 c 5.24002,-7.6832 11.81668,-10.88076 22.28005,-10.83252 10.75431,0.0496 17.15051,3.36037 20.57451,10.64975 2.67764,5.70043 2.87459,8.33125 2.89391,38.65704 l 0.0176,27.65292 -6.06091,0 -6.06092,0 -0.0102,-25.63262 c -0.0128,-32.21603 -0.27745,-34.4694 -4.53311,-38.59225 -2.94799,-2.85599 -6.04636,-3.68057 -12.60475,-3.35455 -7.50205,0.37293 -12.70382,3.62533 -15.90649,9.94549 -2.65178,5.23302 -2.79036,6.88037 -2.79845,33.264 l -0.007,24.36993 -6.06092,0 -6.06091,0 -0.003,-32.95622 z"
       id="path3030"
       inkscape:connector-curvature="0" />
    <path
       style="fill:#ffffff;stroke:#000000;stroke-width:1.01015258;stroke-miterlimit:4;stroke-opacity:1;stroke-dasharray:none"
       d="m 255.87496,454.36168 0,-37.88072 6.06091,0 6.06092,0 0,37.88072 0,37.88072 -6.06092,0 -6.06091,0 0,-37.88072 z"
       id="path3032"
       inkscape:connector-curvature="0" />
    <path
       style="fill:#ffffff;stroke:#000000;stroke-width:1.01015258;stroke-miterlimit:4;stroke-opacity:1;stroke-dasharray:none"
       d="m 255.87496,394.00507 0,-5.80838 6.06091,0 6.06092,0 0,5.80838 0,5.80838 -6.06092,0 -6.06091,0 0,-5.80838 z"
       id="path3034"
       inkscape:connector-curvature="0" />
    <path
       style="fill:#ffffff;stroke:#000000;stroke-width:1.01015258;stroke-miterlimit:4;stroke-opacity:1;stroke-dasharray:none"
       d="m 309.17605,521.51513 c -7.09504,-1.11715 -13.61116,-4.41892 -17.08335,-8.65628 -2.09381,-2.55521 -4.61445,-7.70696 -4.24364,-8.67327 0.15189,-0.39581 2.16135,-0.8853 5.22331,-1.27235 2.73705,-0.34598 5.31738,-0.72598 5.73407,-0.84445 0.5149,-0.1464 1.06768,0.5367 1.72546,2.13222 1.2887,3.12589 4.27558,5.92877 7.78298,7.30353 4.12376,1.61635 12.71978,1.61635 16.84354,0 4.95162,-1.94084 8.12277,-5.84208 9.79444,-12.04938 0.89369,-3.31853 1.67585,-21.35907 0.92557,-21.34846 -0.24968,0.004 -1.24945,1.28006 -2.22173,2.83673 -5.02471,8.04487 -14.70582,12.49393 -25.25381,11.60567 -11.95422,-1.00668 -19.05219,-7.35298 -22.26241,-19.90482 -1.61532,-6.31587 -2.27356,-16.70363 -1.58543,-25.01997 1.00261,-12.1169 3.40664,-19.04991 8.52111,-24.57415 4.79661,-5.18091 11.00878,-7.58586 19.56255,-7.57335 9.1527,0.0134 16.12422,3.6247 20.9291,10.84145 l 2.36174,3.54723 0.12002,-2.0203 c 0.066,-1.11117 0.25769,-4.12269 0.42594,-6.69226 l 0.30592,-4.67196 5.79842,0 5.79841,0 -0.2115,40.27984 c -0.19164,36.49718 -0.29579,40.61184 -1.10906,43.81536 -1.54394,6.08168 -3.43623,9.58655 -7.1992,13.33425 -5.52778,5.50535 -10.97244,7.4871 -21.60662,7.8644 -3.33351,0.11827 -7.41763,0.002 -9.07583,-0.25968 l 0,0 z m 13.87405,-39.42532 c 7.17682,-3.37642 11.60979,-11.33718 12.60063,-22.62828 0.93088,-10.6079 -0.97915,-20.64006 -5.10641,-26.82067 -3.77132,-5.6476 -8.76969,-8.28117 -15.57544,-8.20648 -9.26703,0.1017 -14.58261,5.05247 -17.04148,15.87191 -1.20952,5.32206 -1.188,23.44178 0.0338,28.45007 1.22594,5.02532 3.53973,9.48268 6.02804,11.61257 2.95128,2.52619 5.72385,3.2854 11.48474,3.14485 3.95197,-0.0964 5.28816,-0.34757 7.57614,-1.42397 z"
       id="path3036"
       inkscape:connector-curvature="0" />
    <path
       style="fill:#ffffff;stroke:#000000;stroke-width:1.01015258;stroke-miterlimit:4;stroke-opacity:1;stroke-dasharray:none"
       d="m 368.50697,462.77611 c 0,-16.20646 -0.14934,-33.25279 -0.33186,-37.88072 l -0.33186,-8.41443 5.8877,0 5.8877,0 0.0598,5.17703 c 0.0329,2.84737 0.20333,5.8307 0.37881,6.62962 0.30955,1.40936 0.39082,1.33919 2.73057,-2.35769 2.87739,-4.54635 5.08131,-6.58549 9.18131,-8.49486 8.44881,-3.93459 20.84523,-2.51414 26.19125,3.00114 1.59568,1.6462 3.20566,4.42022 4.71268,8.12003 0.47244,1.15985 0.61084,1.04354 2.99042,-2.51316 4.26501,-6.37479 9.08587,-9.39577 16.93782,-10.61404 7.07954,-1.09843 15.49996,1.08608 19.30071,5.00717 0.98795,1.01923 2.39162,3.04608 3.11927,4.50411 2.78705,5.58457 2.90462,7.0161 3.15291,38.38648 l 0.22885,28.91561 -6.10638,0 -6.10638,0 0,-25.39333 c 0,-32.49014 -0.3968,-35.82931 -4.70735,-39.61398 -2.4445,-2.14627 -5.22581,-2.82915 -10.44494,-2.56449 -3.35381,0.17007 -4.85933,0.50832 -6.88083,1.54596 -4.76416,2.44546 -8.0337,7.42281 -9.31541,14.18121 -0.2592,1.36677 -0.47128,13.59094 -0.47128,27.16483 l 0,24.6798 -6.06091,0 -6.06092,0 0,-25.39333 c 0,-32.49014 -0.39679,-35.82931 -4.70735,-39.61398 -2.43507,-2.138 -5.22581,-2.82649 -10.44494,-2.57683 -6.68086,0.31959 -10.86849,3.03343 -13.89414,9.00426 -2.62212,5.17452 -2.75784,6.82834 -2.76591,33.70488 l -0.007,24.875 -6.06092,0 -6.06091,0 0,-29.46629 z"
       id="path3038"
       inkscape:connector-curvature="0" />
    <path
       style="fill:#ffffff;stroke:#000000;stroke-width:1.01015258;stroke-miterlimit:4;stroke-opacity:1;stroke-dasharray:none"
       d="m 503.17358,493.15191 c -11.70736,-1.08246 -18.51099,-9.21403 -18.49308,-22.10256 0.0101,-7.27255 1.80737,-12.00091 6.25036,-16.4439 6.08761,-6.08761 15.6541,-8.30666 35.86717,-8.31978 l 8.03088,-0.005 -0.32401,-4.94408 c -0.56463,-8.61586 -2.31947,-12.50504 -6.70998,-14.87108 -5.21724,-2.81157 -15.5257,-2.85722 -20.98078,-0.0929 -2.86381,1.4512 -5.19541,4.65369 -5.74152,7.88607 l -0.34489,2.0414 -4.11227,-0.33006 c -2.26175,-0.18154 -5.09812,-0.46482 -6.30305,-0.62951 l -2.19078,-0.29945 0.31889,-1.83006 c 0.17539,-1.00653 1.00143,-3.24329 1.83565,-4.97058 4.13538,-8.56253 13.1888,-12.85939 27.2283,-12.9229 7.57516,-0.0343 11.69238,0.6955 16.41498,2.9095 4.38422,2.05537 7.08184,4.38803 9.25107,7.99946 3.18556,5.30346 3.25684,5.91331 3.58388,30.66081 0.27291,20.65077 0.37434,22.63151 1.24902,24.39218 1.23156,2.47903 3.06834,3.38702 6.85161,3.38702 l 3.05554,0 0,3.4815 c 0,4.1859 0.14744,4.08957 -6.81853,4.45485 -5.53094,0.29003 -8.18489,-0.19667 -10.90912,-2.00063 -2.20322,-1.45894 -4.38747,-5.79603 -4.87716,-9.68413 -0.20688,-1.64273 -0.60345,-3.05746 -0.88124,-3.14384 -0.27779,-0.0864 -1.18693,1.00478 -2.0203,2.42481 -5.7035,9.71843 -15.8044,14.19448 -29.23064,12.95309 l 0,0 z m 15.14156,-9.8334 c 3.43135,-1.15369 7.0987,-3.59804 9.86817,-6.57732 4.14165,-4.45541 5.88455,-9.0917 6.32968,-16.83762 l 0.30556,-5.31726 -8.78331,0.15589 c -15.23319,0.27037 -20.77835,1.43462 -24.62833,5.1709 -3.13782,3.04515 -3.76755,4.64471 -4.00752,10.17934 -0.24264,5.59654 0.29539,7.77527 2.55585,10.34979 2.80039,3.18947 6.21777,4.30901 12.04645,3.94645 2.11262,-0.13141 4.95368,-0.61298 6.31345,-1.07017 l 0,0 z"
       id="path3040"
       inkscape:connector-curvature="0" />
    <path
       style="fill:#e6e6e6;stroke:#000000;stroke-width:1.01015258;stroke-miterlimit:4;stroke-opacity:1;stroke-dasharray:none"
       d="m 180.38278,544.05902 c -2.21979,-0.5319 -4.30987,-2.20813 -4.30987,-3.45648 0,-1.19802 1.33614,-2.89015 2.52829,-3.2019 0.73159,-0.19132 1.71307,0.30609 3.28008,1.66233 3.12436,2.70412 4.90797,2.13127 5.85272,-1.87971 0.77594,-3.29433 3.4912,-19.67757 3.4912,-21.06512 0,-1.06714 -0.29404,-1.38289 -1.51523,-1.62713 -1.55321,-0.31064 -1.78169,-0.89879 -1.19689,-3.08096 0.23403,-0.87329 0.67099,-1.13544 1.88714,-1.13218 0.87042,0.002 3.10685,-0.38638 4.96984,-0.86381 1.86298,-0.47743 3.53309,-0.72221 3.71135,-0.54395 0.50618,0.50618 -3.81705,25.5818 -4.92295,28.55413 -1.82817,4.91361 -8.18382,7.97468 -13.77568,6.63478 z"
       id="path3048"
       inkscape:connector-curvature="0" />
    <path
       style="fill:#e6e6e6;stroke:#000000;stroke-width:1.01015258;stroke-miterlimit:4;stroke-opacity:1;stroke-dasharray:none"
       d="m 193.83862,504.20541 c -1.2868,-1.36973 -1.39153,-2.85963 -0.34347,-4.88636 1.99621,-3.86023 6.9448,-4.03431 7.33771,-0.25812 0.22422,2.1549 -0.0703,2.938 -1.72847,4.5962 -2.02333,2.02333 -3.7146,2.19943 -5.26577,0.54828 z"
       id="path3050"
       inkscape:connector-curvature="0" />
    <path
       style="fill:#e6e6e6;stroke:#000000;stroke-width:1.01015258;stroke-miterlimit:4;stroke-opacity:1;stroke-dasharray:none"
       d="m 209.40794,534.18054 c -3.89754,-0.84406 -6.42952,-2.78935 -7.58204,-5.82518 -1.39254,-3.66808 -0.10257,-10.48241 2.70464,-14.28736 4.21794,-5.71709 13.19448,-7.4222 18.65216,-3.543 4.87669,3.46624 4.54804,13.32863 -0.64059,19.22323 -3.05714,3.4731 -8.72748,5.38663 -13.13417,4.43231 z m 6.64257,-5.52375 c 1.85143,-2.03055 3.17492,-6.62238 3.19212,-11.07502 0.0163,-4.22424 -0.63794,-5.13632 -3.6844,-5.13632 -2.18874,0 -4.65289,2.44293 -5.57769,5.52965 -1.886,6.29491 -1.64685,11.22173 0.59031,12.1612 1.74787,0.73399 4.02103,0.12024 5.47966,-1.47951 z"
       id="path3052"
       inkscape:connector-curvature="0" />
    <path
       style="fill:#e6e6e6;stroke:#000000;stroke-width:1.01015258;stroke-miterlimit:4;stroke-opacity:1;stroke-dasharray:none"
       d="m 239.70925,534.16963 c -0.69628,-0.1968 -2.02056,-0.74804 -2.94286,-1.22498 -1.63143,-0.84364 -1.68428,-0.83888 -1.94967,0.17597 -0.23557,0.9008 -0.6671,1.04311 -3.16315,1.04311 l -2.89037,0 2.41304,-14.43457 c 1.32717,-7.93902 2.28835,-14.75951 2.13595,-15.15665 -0.1524,-0.39714 -0.82023,-0.85839 -1.48407,-1.025 -0.8986,-0.22554 -1.20698,-0.65027 -1.20698,-1.6624 0,-1.79234 0.85485,-2.57164 2.82094,-2.57164 0.88481,0 2.77381,-0.37627 4.19777,-0.83616 1.42396,-0.45989 2.69283,-0.73234 2.81973,-0.60544 0.12689,0.12689 -0.29518,3.34421 -0.93792,7.14961 -0.64275,3.80539 -1.06321,6.9189 -0.93437,6.9189 0.12884,0 0.99808,-0.67064 1.93163,-1.49032 3.33928,-2.93192 7.79224,-2.67086 11.11472,0.65162 3.36805,3.36805 4.1197,8.02242 2.14704,13.29484 -2.36881,6.33122 -9.27601,11.12851 -14.07143,9.77311 z m 3.51874,-4.99271 c 1.71587,-1.24362 3.38914,-4.76683 4.04249,-8.51184 0.88146,-5.05255 -0.25943,-7.71455 -3.30632,-7.71455 -2.02891,0 -4.36441,2.57102 -5.49118,6.04491 -1.07853,3.32518 -1.9948,8.85773 -1.62609,9.81856 0.73061,1.90394 3.99844,2.0898 6.3811,0.36292 l 0,0 z"
       id="path3054"
       inkscape:connector-curvature="0" />
    <path
       style="fill:#e6e6e6;stroke:#000000;stroke-width:1.01015258;stroke-miterlimit:4;stroke-opacity:1;stroke-dasharray:none"
       d="m 262.87458,534.15384 c -5.76434,-0.97312 -9.12199,-4.36157 -6.71101,-6.77256 1.33869,-1.33869 3.18036,-0.93813 5.63964,1.22662 1.91525,1.68586 2.65359,2.0203 4.46026,2.0203 1.73739,0 2.37187,-0.26289 3.21189,-1.3308 2.12014,-2.69533 1.22164,-3.81922 -4.55449,-5.69696 -4.50568,-1.46474 -6.26799,-3.30788 -6.26799,-6.55551 0,-4.57056 4.09154,-7.93773 10.33309,-8.50369 7.0113,-0.63576 13.38831,3.83893 9.70285,6.8084 -1.21369,0.9779 -1.94611,0.77293 -4.05899,-1.13593 -2.40395,-2.17182 -4.6194,-2.71608 -6.3746,-1.56603 -1.39008,0.91081 -1.75418,3.32372 -0.63725,4.22303 0.34724,0.27958 2.28036,1.09845 4.29582,1.81971 4.78531,1.71249 6.01356,2.56579 6.70382,4.65729 2.09433,6.34588 -6.64199,12.34255 -15.74304,10.80613 l 0,0 z"
       id="path3056"
       inkscape:connector-curvature="0" />
  </g>
</svg>
